<?xml version="1.0" encoding="UTF-8"?>
<svg id="Layer_1" data-name="Layer 1" xmlns="http://www.w3.org/2000/svg" xmlns:xlink="http://www.w3.org/1999/xlink" viewBox="0 0 237.46 55.69">
  <defs>
    <style>
      .cls-1 {
        fill: url(#linear-gradient-8);
      }

      .cls-1, .cls-2, .cls-3, .cls-4, .cls-5, .cls-6 {
        fill-rule: evenodd;
      }

      .cls-2 {
        fill: url(#linear-gradient-2);
      }

      .cls-3 {
        fill: url(#linear-gradient-3);
      }

      .cls-4 {
        fill: url(#linear-gradient-4);
      }

      .cls-7 {
        fill: url(#linear-gradient-7);
      }

      .cls-8 {
        fill: url(#linear-gradient-5);
      }

      .cls-9 {
        fill: url(#linear-gradient-6);
      }

      .cls-10 {
        fill: #706f6f;
      }

      .cls-5 {
        fill: url(#linear-gradient);
      }

      .cls-6 {
        fill: #e3e3e3;
      }
    </style>
    <linearGradient id="linear-gradient" x1="34.4" y1="43.81" x2="68.93" y2="43.81" gradientUnits="userSpaceOnUse">
      <stop offset="0" stop-color="#706f6f"/>
      <stop offset=".5" stop-color="#c6c6c6"/>
      <stop offset="1" stop-color="#706f6f"/>
    </linearGradient>
    <linearGradient id="linear-gradient-2" x1="119.07" y1="19.42" x2="119.07" y2="38.78" gradientUnits="userSpaceOnUse">
      <stop offset="0" stop-color="#0069a9"/>
      <stop offset="1" stop-color="#172546"/>
    </linearGradient>
    <linearGradient id="linear-gradient-3" x1="196.66" y1="19.36" x2="196.66" y2="37.21" gradientUnits="userSpaceOnUse">
      <stop offset="0" stop-color="#c6c6c6"/>
      <stop offset="1" stop-color="#706f6f"/>
    </linearGradient>
    <linearGradient id="linear-gradient-4" x1="1.67" y1="37.79" x2="73.81" y2="37.79" xlink:href="#linear-gradient"/>
    <linearGradient id="linear-gradient-5" x1="35.54" y1="5.37" x2="17.94" y2="41.45" gradientUnits="userSpaceOnUse">
      <stop offset="0" stop-color="#0069a9"/>
      <stop offset="1" stop-color="#172546"/>
    </linearGradient>
    <linearGradient id="linear-gradient-6" x1="50.64" y1="2.14" x2="34.74" y2="34.74" gradientUnits="userSpaceOnUse">
      <stop offset=".12" stop-color="#0069a9"/>
      <stop offset=".92" stop-color="#172546"/>
    </linearGradient>
    <linearGradient id="linear-gradient-7" x1="64.09" y1="2.33" x2="52.89" y2="25.33" gradientUnits="userSpaceOnUse">
      <stop offset=".11" stop-color="#0069a9"/>
      <stop offset="1" stop-color="#172546"/>
    </linearGradient>
    <linearGradient id="linear-gradient-8" x1="-1.49" y1="48.46" x2="52.96" y2="49.41" gradientUnits="userSpaceOnUse">
      <stop offset="0" stop-color="#172546"/>
      <stop offset="1" stop-color="#0069a9"/>
    </linearGradient>
  </defs>
  <path class="cls-5" d="M68.93,37.67c.02-.5-.01-.9-.08-1.15-.4-1.85-2.3-4.43-6-4.13-.68.05-1.42.23-2.17.46-.02,0-.05.02-.07.02-2.82.9-5.7,2.69-5.7,2.69h0c-.46.26-.93.53-1.4.82-7.14,4.22-19.11,10.75-19.11,10.75,8.17-1.14,12.18,1.19,12.18,1.19,5.65-4.5,11.89-8.3,13.62-9.08,2.94-1.33,4.96.88,3.82,3.82-2.9,7.51-15.29,12.18-15.29,12.18,8.56-2,14.15-6.19,17.92-10.99.96-1.22,1.56-2.72,1.91-4.09h0s.34-.98.37-2.5Z"/>
  <g>
    <path class="cls-10" d="M79.74,49.92v-.02c0-1.99,1.55-3.62,3.67-3.62,1.26,0,2.02.34,2.75.96l-.97,1.17c-.54-.45-1.02-.71-1.83-.71-1.12,0-2.01.99-2.01,2.18v.02c0,1.28.88,2.22,2.12,2.22.56,0,1.06-.14,1.45-.42v-1h-1.55v-1.33h3.04v3.04c-.72.61-1.71,1.11-2.99,1.11-2.18,0-3.68-1.53-3.68-3.6Z"/>
    <path class="cls-10" d="M88.38,50.4v-4h1.54v3.96c0,1.14.57,1.73,1.51,1.73s1.51-.57,1.51-1.68v-4.01h1.54v3.95c0,2.12-1.19,3.16-3.07,3.16s-3.03-1.05-3.03-3.11ZM89.61,44.58h1.46v1.27h-1.46v-1.27ZM91.79,44.58h1.46v1.27h-1.46v-1.27Z"/>
    <path class="cls-10" d="M98.27,54.6l.8-1.18c-1.61-.36-2.73-1.78-2.73-3.5v-.02c0-1.99,1.5-3.62,3.65-3.62,1.32,0,2.11.44,2.76,1.08l-.98,1.13c-.54-.49-1.09-.79-1.79-.79-1.18,0-2.03.98-2.03,2.18v.02c0,1.2.83,2.2,2.03,2.2.8,0,1.29-.32,1.84-.82l.98.99c-.67.72-1.42,1.18-2.61,1.24l-.65,1.62-1.27-.53Z"/>
    <path class="cls-10" d="M110.63,46.35h1.42l3,7.05h-1.61l-.64-1.57h-2.96l-.64,1.57h-1.57l3-7.05ZM112.25,50.47l-.93-2.27-.93,2.27h1.86Z"/>
    <path class="cls-10" d="M116.73,46.4h1.54v3.06l2.84-3.06h1.86l-2.85,2.97,2.98,4.03h-1.85l-2.17-2.98-.81.84v2.14h-1.54v-7Z"/>
    <path class="cls-10" d="M126.16,47.82h-2.13v-1.42h5.8v1.42h-2.13v5.58h-1.54v-5.58Z"/>
    <path class="cls-10" d="M133.11,46.35h1.42l3,7.05h-1.61l-.64-1.57h-2.96l-.64,1.57h-1.57l3-7.05ZM134.73,50.47l-.93-2.27-.93,2.27h1.86Z"/>
    <path class="cls-10" d="M139.21,46.4h3.2c.89,0,1.58.25,2.04.71.39.39.6.94.6,1.6v.02c0,1.13-.61,1.84-1.5,2.17l1.71,2.5h-1.8l-1.5-2.24h-1.21v2.24h-1.54v-7ZM142.31,49.8c.75,0,1.18-.4,1.18-.99v-.02c0-.66-.46-1-1.21-1h-1.53v2.01h1.56Z"/>
    <path class="cls-10" d="M147.11,46.4h1.54v7h-1.54v-7Z"/>
    <path class="cls-10" d="M151,46.4h1.66l1.84,2.96,1.84-2.96h1.66v7h-1.53v-4.57l-1.97,2.99h-.04l-1.95-2.96v4.54h-1.51v-7Z"/>
    <path class="cls-10" d="M163.4,52.38l.91-1.09c.63.52,1.29.85,2.09.85.63,0,1.01-.25,1.01-.66v-.02c0-.39-.24-.59-1.41-.89-1.41-.36-2.32-.75-2.32-2.14v-.02c0-1.27,1.02-2.11,2.45-2.11,1.02,0,1.89.32,2.6.89l-.8,1.16c-.62-.43-1.23-.69-1.82-.69s-.9.27-.9.61v.02c0,.46.3.61,1.51.92,1.42.37,2.22.88,2.22,2.1v.02c0,1.39-1.06,2.17-2.57,2.17-1.06,0-2.13-.37-2.97-1.12Z"/>
    <path class="cls-10" d="M170.95,46.4h1.54v7h-1.54v-7ZM170.97,44.58h1.5v1.27h-1.5v-1.27Z"/>
    <path class="cls-10" d="M174.36,52.38l.91-1.09c.63.52,1.29.85,2.09.85.63,0,1.01-.25,1.01-.66v-.02c0-.39-.24-.59-1.41-.89-1.41-.36-2.32-.75-2.32-2.14v-.02c0-1.27,1.02-2.11,2.45-2.11,1.02,0,1.89.32,2.6.89l-.8,1.16c-.62-.43-1.23-.69-1.82-.69s-.9.27-.9.61v.02c0,.46.3.61,1.51.92,1.42.37,2.22.88,2.22,2.1v.02c0,1.39-1.06,2.17-2.57,2.17-1.06,0-2.13-.37-2.97-1.12Z"/>
    <path class="cls-10" d="M183.32,47.82h-2.13v-1.42h5.8v1.42h-2.13v5.58h-1.54v-5.58Z"/>
    <path class="cls-10" d="M188.77,46.4h5.28v1.37h-3.75v1.42h3.3v1.37h-3.3v1.47h3.8v1.37h-5.33v-7Z"/>
    <path class="cls-10" d="M196.07,46.4h1.66l1.84,2.96,1.84-2.96h1.66v7h-1.53v-4.57l-1.97,2.99h-.04l-1.95-2.96v4.54h-1.51v-7Z"/>
    <path class="cls-10" d="M205.35,46.4h1.54v5.6h3.49v1.4h-5.03v-7Z"/>
    <path class="cls-10" d="M212.14,46.4h5.28v1.37h-3.75v1.42h3.3v1.37h-3.3v1.47h3.8v1.37h-5.33v-7Z"/>
    <path class="cls-10" d="M219.44,46.4h3.2c.89,0,1.58.25,2.04.71.39.39.6.94.6,1.6v.02c0,1.13-.61,1.84-1.5,2.17l1.71,2.5h-1.8l-1.5-2.24h-1.21v2.24h-1.54v-7ZM222.54,49.8c.75,0,1.18-.4,1.18-.99v-.02c0-.66-.46-1-1.21-1h-1.53v2.01h1.56Z"/>
    <path class="cls-10" d="M227.34,46.4h1.54v7h-1.54v-7ZM227.36,44.58h1.5v1.27h-1.5v-1.27Z"/>
  </g>
  <g>
    <path class="cls-2" d="M87.94,38.78h-6.72l5.28-19.36h6.72l-2.16,8.63,12-8.63h8.16l-12.96,8.87,6,8.88,14.16-17.75h9.6l1.92,19.36h-6.72l-.24-3.53h-10.32l-2.64,3.53h-12.72l-4.32-7.13-4.08,2.64-.96,4.49ZM121.78,23.73l.72,7.44h-6.72l6-7.44ZM137.86,38.78h-6.48l5.04-19.36h13.92s5.85-.22,6.48,3.83-2.2,9.51-7.2,9.84l4.08,5.69h-7.44l-3.36-5.21h-3.84l-1.2,5.21ZM140.26,29.73l1.44-6h6.72s1.94-.3,1.92,1.92-1.11,4.08-2.64,4.08h-7.44Z"/>
    <path class="cls-3" d="M162.58,38.78h-6.72l5.04-19.36h6.96l4.08,9.59,9.6-9.59h6.96l-5.04,19.36h-6.48l2.64-10.49-9.6,9.36-4.56-9.84-2.88,10.97ZM224.74,38.78h-6.72l4.08-15.05h-7.44l1.2-4.31h21.6l-1.2,4.31h-7.68l-3.84,15.05ZM189.7,24.21s1.13-4.79,6.72-4.79h11.04s6.45-.21,5.28,5.03-2.4,9.6-2.4,9.6c0,0-.51,4.73-6.72,4.73h-11.28s-6.33-.11-4.8-5.69l2.16-8.88ZM198.1,23.73h6.48s1.91.15,1.44,2.16-1.68,6.72-1.68,6.72c0,0-.26,2.16-2.4,2.16h-6.48s-1.93,0-1.44-2.16,2.16-7.68,2.16-7.68c0,0,.04-1.16,1.92-1.2Z"/>
  </g>
  <path class="cls-4" d="M1.67,39.72s8.37,12.76,28.43,5.97c7.22-2.45,10.3-4.39,13.85-6.45,6.32-3.66,9.46-5.95,13.62-7.88,5-2.32,11.95-2.03,13.62,3.82,1.66,5.85-3.27,12.83-8.6,16,0,0,11.11-4.92,11.23-16,.12-11.1-10.8-13.29-19.35-8.12-8.25,5-34.25,25.69-52.79,12.66Z"/>
  <path class="cls-6" d="M19.35,44.49s11.34.54,29.14-11.94c16.47-11.55,22.22-4.78,22.22-4.78,0,0-5.99-8.37-22.69,4.06,0,0-16.23,11.32-28.66,12.66Z"/>
  <path class="cls-6" d="M43.95,42.82s7.36-3.74,12.66-6.69c5.3-2.95,7.55-2.99,10.51-1.67,0,0-3.09-3.86-11.23,1.19-8.13,5.05-11,6.25-11.94,7.17Z"/>
  <path class="cls-8" d="M23.25,39.26L39.53,7.32h-9.18L13.95,39.5c1.12.08,5,.29,9.3-.25Z"/>
  <path class="cls-9" d="M40.38,32L56.69,0h-9.18l-19.42,38.09c1.75-.56,6.91-2.41,12.28-6.09Z"/>
  <path class="cls-7" d="M59.49,20.85L70.12,0h-9.18l-13.85,27.17c2.5-1.67,8.3-5.34,12.4-6.32Z"/>
  <path class="cls-1" d="M0,44.97s17.09,20.09,44.67,5.26l5.97-7.64S21.12,61.96,0,44.97Z"/>
</svg>